<svg width="20" height="21" viewBox="0 0 20 21" fill="none" xmlns="http://www.w3.org/2000/svg">
    <path d="M12.824 4.689c.563-.68.961-1.606.961-2.543a1.74 1.74 0 0 0-.035-.363c-.914.035-2.016.61-2.672 1.383-.515.585-.996 1.523-.996 2.46 0 .141.023.282.035.329.059.011.152.023.246.023.82 0 1.852-.55 2.461-1.289zm.645 1.488c-1.371 0-2.485.832-3.2.832-.761 0-1.757-.785-2.953-.785-2.261 0-4.558 1.875-4.558 5.402 0 2.204.844 4.524 1.898 6.024.903 1.266 1.688 2.309 2.824 2.309 1.125 0 1.618-.75 3.012-.75 1.418 0 1.735.726 2.977.726 1.23 0 2.05-1.125 2.824-2.238.867-1.278 1.23-2.52 1.242-2.578-.07-.024-2.426-.985-2.426-3.68 0-2.332 1.852-3.375 1.957-3.457-1.218-1.758-3.082-1.805-3.597-1.805z" fill="#000"/>
</svg>
