<svg width="20" height="20" viewBox="0 0 20 20" fill="none" xmlns="http://www.w3.org/2000/svg">
    <path d="M16.594 4.375H3.406C2.632 4.375 2 5.005 2 5.781v8.438c0 .777.633 1.406 1.406 1.406h13.188c.774 0 1.406-.63 1.406-1.406V5.78c0-.777-.633-1.406-1.406-1.406zm-.216.938-6.015 6.034a.547.547 0 0 1-.726 0L3.622 5.313h12.756zm-13.44 8.733V5.954L6.97 10l-4.034 4.046zm.684.642 4.01-4.024 1.34 1.345c.55.55 1.506.55 2.055 0l1.34-1.345 4.01 4.024H3.623zm13.44-.642L13.03 10l4.034-4.046v8.092z" fill="#000"/>
</svg>
