<svg width="20" height="21" viewBox="0 0 20 21" fill="none" xmlns="http://www.w3.org/2000/svg">
    <g clip-path="url(#u4tmxr432a)">
        <path d="M20 10.83c0-5.523-4.477-10-10-10s-10 4.477-10 10c0 4.99 3.657 9.128 8.438 9.878V13.72h-2.54v-2.89h2.54V8.625c0-2.506 1.492-3.89 3.777-3.89 1.094 0 2.238.195 2.238.195v2.461h-1.26c-1.243 0-1.63.77-1.63 1.562v1.875h2.773l-.443 2.891h-2.33v6.988c4.78-.75 8.437-4.887 8.437-9.878z" fill="#1877F2"/>
        <path d="m13.893 13.72.443-2.89h-2.774V8.954c0-.791.388-1.562 1.63-1.562h1.261v-2.46s-1.144-.196-2.238-.196c-2.285 0-3.777 1.384-3.777 3.89v2.204h-2.54v2.89h2.54v6.988a10.073 10.073 0 0 0 3.124 0V13.72h2.33z" fill="#fff"/>
    </g>
    <defs>
        <clipPath id="u4tmxr432a">
            <path fill="#fff" transform="translate(0 .83)" d="M0 0h20v20H0z"/>
        </clipPath>
    </defs>
</svg>
