<svg width="20" height="21" viewBox="0 0 20 21" fill="none" xmlns="http://www.w3.org/2000/svg">
    <path fill-rule="evenodd" clip-rule="evenodd" d="M10 5.31c1.69 0 2.83.73 3.48 1.34l2.54-2.48C14.46 2.72 12.43 1.83 10 1.83c-3.52 0-6.56 2.02-8.04 4.96l2.91 2.26C5.6 6.88 7.62 5.31 10 5.31z" fill="#EA4335"/>
    <path fill-rule="evenodd" clip-rule="evenodd" d="M18.64 11.03c0-.74-.06-1.28-.19-1.84H10v3.34h4.96c-.1.83-.64 2.08-1.84 2.92l2.84 2.2c1.7-1.57 2.68-3.88 2.68-6.62z" fill="#4285F4"/>
    <path fill-rule="evenodd" clip-rule="evenodd" d="M4.88 12.61a5.54 5.54 0 0 1-.3-1.78c0-.62.11-1.22.29-1.78L1.96 6.79A9.008 9.008 0 0 0 1 10.83c0 1.45.35 2.82.96 4.04l2.92-2.26z" fill="#FBBC05"/>
    <path fill-rule="evenodd" clip-rule="evenodd" d="M10 19.83c2.43 0 4.47-.8 5.96-2.18l-2.84-2.2c-.76.53-1.78.9-3.12.9-2.38 0-4.4-1.57-5.12-3.74l-2.91 2.26c1.48 2.94 4.51 4.96 8.03 4.96z" fill="#34A853"/>
</svg>
