<svg clip-rule="evenodd" fill-rule="evenodd" height="512" stroke-linejoin="round" stroke-miterlimit="2" viewBox="0 0 24 24" width="512" xmlns="http://www.w3.org/2000/svg"><g id="Icon" fill="#C2512B"><g fill="#C2512B"><path d="m6.697 9.525c-.756.756-2.183 2.183-2.829 2.829-.937.937-1.464 2.209-1.464 3.535s.527 2.598 1.464 3.536c.235.234.473.472.707.707.938.937 2.21 1.464 3.536 1.464s2.598-.527 3.535-1.464l2.829-2.829c.39-.39.39-1.024 0-1.414s-1.024-.39-1.414 0c-.756.756-2.183 2.183-2.829 2.829-.562.562-1.325.878-2.121.878s-1.559-.316-2.121-.878c-.235-.235-.473-.473-.708-.708-.562-.562-.878-1.325-.878-2.121s.316-1.559.878-2.121l2.829-2.829c.39-.39.39-1.024 0-1.414s-1.024-.39-1.414 0z" fill="#C2512B"></path><path d="m17.303 14.475c.756-.756 2.183-2.183 2.829-2.829.937-.937 1.464-2.209 1.464-3.535s-.527-2.598-1.464-3.536c-.235-.234-.473-.472-.707-.707-.938-.937-2.21-1.464-3.536-1.464s-2.598.527-3.535 1.464c-.646.646-2.073 2.073-2.829 2.829-.39.39-.39 1.024 0 1.414s1.024.39 1.414 0c.756-.756 2.183-2.183 2.829-2.829.562-.562 1.325-.878 2.121-.878s1.559.316 2.121.878c.235.235.473.473.708.708.562.562.878 1.325.878 2.121s-.316 1.559-.878 2.121c-.646.646-2.073 2.073-2.829 2.829-.39.39-.39 1.024 0 1.414s1.024.39 1.414 0z" fill="#C2512B"></path><path d="m9.172 16.243 7.071-7.071c.39-.391.39-1.024 0-1.415-.391-.39-1.024-.39-1.415 0l-7.071 7.071c-.39.391-.39 1.024 0 1.415.391.39 1.024.39 1.415 0z" fill="#C2512B"></path><path d="m18.501 17-.002 5c0 .552.448 1 1 1s1-.448 1-1l.002-5c0-.552-.448-1-1-1s-1 .448-1 1z" fill="#C2512B"></path><path d="m17 20.499 5 .002c.552 0 1-.448 1-1s-.448-1-1-1l-5-.002c-.552 0-1 .448-1 1s.448 1 1 1z" fill="#C2512B"></path></g></g></svg>