<svg width="20" height="20" viewBox="0 0 20 20" fill="none" xmlns="http://www.w3.org/2000/svg">
    <path d="M13.751 12.918c1.434 0 3.125.667 3.334 1.067v.6h-6.667v-.6c.208-.4 1.9-1.067 3.333-1.067m0-1.25c-1.525 0-4.583.767-4.583 2.292v1.875h9.167V13.96c0-1.525-3.059-2.292-4.584-2.292m-6.25-.833c-1.941 0-5.833.975-5.833 2.916v2.084h5.833v-1.25H2.918v-.834c0-.525 2.325-1.8 5.267-1.666a4.266 4.266 0 0 1 1.291-1.042 10.238 10.238 0 0 0-1.975-.208m0-5.417a1.25 1.25 0 1 1 0 2.5 1.25 1.25 0 0 1 0-2.5zm0-1.25a2.5 2.5 0 1 0 0 5 2.5 2.5 0 0 0 0-5zm6.25 2.917a.834.834 0 1 1 0 1.667.834.834 0 0 1 0-1.667zm0-1.25a2.083 2.083 0 1 0 0 4.166 2.083 2.083 0 0 0 0-4.166z" fill="#000"/>
</svg>
