<svg width="20" height="20" viewBox="0 0 20 20" fill="none" xmlns="http://www.w3.org/2000/svg">
    <path d="M11.667 8.333v5.834M8.333 8.333v5.834M5 5v9.833c0 .934 0 1.4.182 1.757.16.314.414.569.728.728.356.182.822.182 1.754.182h4.672c.931 0 1.397 0 1.753-.182.314-.16.57-.415.73-.728.18-.357.18-.822.18-1.754V5M5 5h1.668M5 5H3.333M15 5h-1.667M15 5h1.667m-10 0h6.666M6.667 5c0-.777 0-1.165.126-1.47a1.667 1.667 0 0 1 .902-.903C8.002 2.5 8.39 2.5 9.167 2.5h1.666c.777 0 1.165 0 1.471.127a1.666 1.666 0 0 1 .903.902c.126.306.126.694.126 1.471" stroke="#AA2E26" stroke-width="1.667" stroke-linecap="round" stroke-linejoin="round"/>
</svg>
