<svg width="100" height="62" viewBox="0 0 100 62" fill="none" xmlns="http://www.w3.org/2000/svg">
    <path d="M50 55.379c22.091 0 40-3.889 40-8.685 0-4.797-17.909-8.685-40-8.685s-40 3.888-40 8.685c0 4.796 17.909 8.685 40 8.685z" fill="#E6EDF4"/>
    <path d="M78.75 22.832 66.067 8.56C65.46 7.588 64.57 7 63.634 7H36.366c-.936 0-1.825.588-2.434 1.56L21.25 22.833v11.463h57.5V22.832z" stroke="#D9D9D9"/>
    <path d="M62.016 26.766c0-1.991 1.243-3.635 2.784-3.637h13.95v22.503c0 2.634-1.65 4.793-3.688 4.793H24.938c-2.038 0-3.688-2.16-3.688-4.793V23.13H35.2c1.541 0 2.784 1.642 2.784 3.633v.027c0 1.992 1.256 3.6 2.796 3.6h18.44c1.54 0 2.796-1.623 2.796-3.614v-.01z" fill="#F1F5F9" stroke="#D9D9D9"/>
</svg>
