
<svg width="40" height="40" viewBox="0 0 40 40" fill="none" xmlns="http://www.w3.org/2000/svg">
    <g clip-path="url(#cbqys6y57a)">
        <path d="M35.433 21.363h-6.361v-3.18h6.361v3.18zm0 1.818h-6.361v3.18h6.361v-3.18zm0-14.995h-6.361v3.18h6.361v-3.18zm0 4.998h-6.361v3.181h6.361v-3.18zm0 14.995h-6.361v3.18h6.361v-3.18zm4.394 6.27c-.181.946-1.317.969-2.076 1H23.619v4.09h-2.822L0 35.904V4.1L20.92.461h2.7v3.622h13.644c.768.032 1.614-.023 2.281.436.469.673.423 1.527.455 2.3l-.018 23.655c-.023 1.322.123 2.672-.155 3.976zM16.662 27.32c-1.254-2.544-2.53-5.07-3.78-7.615a941.976 941.976 0 0 0 3.667-7.448c-1.032.05-2.063.114-3.09.187-.768 1.867-1.663 3.685-2.263 5.616-.559-1.822-1.3-3.576-1.976-5.353-1 .055-2 .114-3 .173 1.055 2.326 2.177 4.621 3.2 6.961-1.205 2.272-2.331 4.576-3.5 6.861.996.041 1.99.082 2.986.096.709-1.809 1.59-3.549 2.208-5.394.555 1.981 1.495 3.813 2.268 5.707 1.095.078 2.185.146 3.28.21zm21.17-21.079H23.62v1.945h3.635v3.18H23.62v1.818h3.635v3.181H23.62v1.818h3.635v3.18H23.62v1.818h3.635v3.18H23.62v1.818h3.635v3.18H23.62v2.102h14.214V6.241z" fill="#2D3748"/>
    </g>
    <defs>
        <clipPath id="cbqys6y57a">
            <path fill="#fff" d="M0 0h40v40H0z"/>
        </clipPath>
    </defs>
</svg>
