<svg width="20" height="21" viewBox="0 0 20 21" fill="none" xmlns="http://www.w3.org/2000/svg">
    <g clip-path="url(#viu5yz74aa)">
        <path d="M13.363 3.012a2.5 2.5 0 0 1 3.415-.112l.12.112.59.59a2.5 2.5 0 0 1 .112 3.415l-.112.12-9.344 9.344a1.25 1.25 0 0 1-.468.295l-.135.039-3.712.857a.833.833 0 0 1-1.016-.907l.016-.094.856-3.713a1.25 1.25 0 0 1 .242-.498l.092-.104 9.344-9.344zm-.59 2.946L5.282 13.45l-.53 2.298 2.298-.53 7.492-7.492-1.769-1.768zm2.947-1.767a.834.834 0 0 0-1.1-.07l-.078.07-.59.589 1.768 1.767.59-.589a.833.833 0 0 0 .068-1.1l-.069-.078-.589-.59z" fill="#7B7B7B"/>
    </g>
    <defs>
        <clipPath id="viu5yz74aa">
            <path fill="#fff" transform="translate(0 .5)" d="M0 0h20v20H0z"/>
        </clipPath>
    </defs>
</svg>
