<svg width="121" height="50" viewBox="0 0 121 50" fill="none" xmlns="http://www.w3.org/2000/svg">
    <path d="M8.934 19.593c0-1.302 1.066-1.803 2.833-1.803 2.534 0 5.733.768 8.267 2.137v-7.844c-2.767-1.102-5.5-1.536-8.267-1.536-6.766 0-11.266 3.539-11.266 9.447 0 9.212 12.666 7.743 12.666 11.715 0 1.535-1.333 2.036-3.2 2.036-2.766 0-6.3-1.135-9.1-2.67v7.944a23.08 23.08 0 0 0 9.1 1.902c6.933 0 11.7-3.437 11.7-9.412-.033-9.947-12.733-8.178-12.733-11.916zM31.467 3.872l-8.133 1.735-.034 26.736c0 4.94 3.7 8.578 8.634 8.578 2.733 0 4.733-.5 5.833-1.101v-6.776c-1.067.434-6.334 1.97-6.334-2.97v-11.85h6.334v-7.11h-6.334l.034-7.242zm16.666 9.713-.533-2.47h-7.2V40.32h8.334V20.528c1.966-2.57 5.3-2.103 6.333-1.736v-7.677c-1.067-.4-4.967-1.135-6.934 2.47zm8.967-2.47h8.366V40.32H57.1V11.115zm0-2.537 8.366-1.802V0L57.1 1.77v6.808zm25.766 1.97c-3.266 0-5.366 1.535-6.533 2.603l-.433-2.07h-7.333V50l8.333-1.769.033-9.446c1.2.868 2.967 2.103 5.9 2.103 5.967 0 11.4-4.806 11.4-15.387-.033-9.68-5.533-14.954-11.367-14.954zm-2 22.997c-1.966 0-3.133-.701-3.933-1.569L76.9 19.593c.866-.968 2.066-1.636 3.966-1.636 3.034 0 5.134 3.405 5.134 7.777 0 4.473-2.067 7.81-5.134 7.81zm39.633-7.71c0-8.545-4.133-15.288-12.033-15.288-7.933 0-12.733 6.743-12.733 15.22 0 10.048 5.667 15.121 13.8 15.121 3.966 0 6.966-.901 9.233-2.17v-6.675c-2.267 1.135-4.867 1.836-8.167 1.836-3.233 0-6.1-1.135-6.466-5.074h16.3c0-.434.066-2.17.066-2.97zm-16.466-3.171c0-3.772 2.3-5.34 4.4-5.34 2.033 0 4.2 1.568 4.2 5.34h-8.6z" fill="#6772E5"/>
</svg>
