<svg width="43" height="50" viewBox="0 0 43 50" fill="none" xmlns="http://www.w3.org/2000/svg">
    <path d="M36.129 3.892C33.843 1.262 29.71.135 24.424.135H9.081c-.523 0-1.029.189-1.426.531a2.223 2.223 0 0 0-.744 1.34L.523 42.893a1.325 1.325 0 0 0 1.301 1.536h9.472l2.38-15.227-.075.477a2.196 2.196 0 0 1 2.162-1.87h4.501c8.843 0 15.767-3.625 17.79-14.11.06-.31.111-.612.156-.906-.255-.137-.255-.137 0 0 .602-3.876-.004-6.514-2.081-8.902" fill="#2D3748"/>
    <path d="M17.3 11.398c.259-.125.542-.19.829-.19h12.028c1.424 0 2.753.094 3.967.291.34.055.678.12 1.014.196.475.106.946.236 1.409.389.597.2 1.152.435 1.663.71.602-3.877-.004-6.514-2.081-8.902C33.842 1.262 29.71.135 24.424.135H9.08c-1.08 0-2 .794-2.169 1.87L.523 42.892a1.325 1.325 0 0 0 1.3 1.537h9.473l4.936-31.585a1.95 1.95 0 0 1 .357-.856c.186-.252.43-.455.71-.59z" fill="#2D3748"/>
    <path d="M38.053 13.7c-2.022 10.484-8.946 14.11-17.789 14.11h-4.502c-1.08 0-1.993.794-2.16 1.87l-2.96 18.933a1.16 1.16 0 0 0 1.138 1.345h7.984c.458 0 .9-.165 1.248-.465.348-.3.578-.715.65-1.17l.077-.412 1.505-9.625.097-.532c.072-.456.302-.87.65-1.17.347-.3.79-.465 1.247-.465h1.195c7.735 0 13.791-3.172 15.561-12.343.739-3.833.357-7.033-1.597-9.28-.593-.681-1.33-1.244-2.187-1.703-.046.297-.097.597-.157.907z" fill="#2790C3"/>
    <path d="M36.093 11.942a14.6 14.6 0 0 0-.954-.247c-.336-.074-.674-.14-1.014-.194-1.215-.199-2.543-.292-3.968-.292H18.13a1.92 1.92 0 0 0-1.54.78 1.942 1.942 0 0 0-.357.857l-2.556 16.357-.074.477a2.194 2.194 0 0 1 2.16-1.87h4.503c8.842 0 15.766-3.625 17.788-14.11.06-.31.111-.61.157-.907a10.869 10.869 0 0 0-1.663-.708c-.15-.05-.302-.098-.455-.143" fill="#1F264F"/>
</svg>
